<svg data-v-8892b924="" viewBox="0 0 16 16" width="1em" height="1em" focusable="false" role="img" alt="icon" xmlns="http://www.w3.org/2000/svg" fill="#757575" class="bi-house-door-fill mx-auto b-icon bi"><g data-v-8892b924=""><path d="M6.5 10.995V14.5a.5.5 0 01-.5.5H2a.5.5 0 01-.5-.5v-7a.5.5 0 01.146-.354l6-6a.5.5 0 01.708 0l6 6a.5.5 0 01.146.354v7a.5.5 0 01-.5.5h-4a.5.5 0 01-.5-.5V11c0-.25-.25-.5-.5-.5H7c-.25 0-.5.25-.5.495z"></path><path fill-rule="evenodd" d="M13 2.5V6l-2-2V2.5a.5.5 0 01.5-.5h1a.5.5 0 01.5.5z" clip-rule="evenodd"></path></g></svg>